<?xml version="1.0" encoding="UTF-8"?>
<svg width="1024px" height="1024px" viewBox="0 0 1024 1024" xmlns="http://www.w3.org/2000/svg">
    <defs>
        <linearGradient id="grad1" x1="0%" y1="0%" x2="100%" y2="100%">
            <stop offset="0%" style="stop-color:#151421;stop-opacity:1" />
            <stop offset="100%" style="stop-color:#1E1B2E;stop-opacity:1" />
        </linearGradient>
        <linearGradient id="grad2" x1="0%" y1="0%" x2="100%" y2="100%">
            <stop offset="0%" style="stop-color:#2D5BF5;stop-opacity:1" />
            <stop offset="100%" style="stop-color:#4171FF;stop-opacity:1" />
        </linearGradient>
    </defs>
    <circle cx="512" cy="512" r="460" fill="url(#grad1)" stroke="url(#grad2)" stroke-width="40"/>
    <path d="M312,512 C412,412 462,462 512,512 C562,562 612,612 712,512" 
          stroke="url(#grad2)" stroke-width="40" fill="none" 
          transform="rotate(0,512,512)"/>
    <path d="M312,512 C412,412 462,462 512,512 C562,562 612,612 712,512" 
          stroke="url(#grad2)" stroke-width="40" fill="none" 
          transform="rotate(60,512,512)"/>
    <path d="M312,512 C412,412 462,462 512,512 C562,562 612,612 712,512" 
          stroke="url(#grad2)" stroke-width="40" fill="none" 
          transform="rotate(120,512,512)"/>
</svg>
